<svg width="25" height="25" viewBox="0 0 25 25" fill="none" xmlns="http://www.w3.org/2000/svg">
<path d="M21.793 6.68164L20.2305 3.55664C20.1655 3.42684 20.0657 3.31771 19.9422 3.24147C19.8187 3.16523 19.6764 3.1249 19.5312 3.125H5.46875C5.32361 3.1249 5.18131 3.16523 5.05781 3.24147C4.9343 3.31771 4.83448 3.42684 4.76953 3.55664L3.20703 6.68164C3.15325 6.79035 3.12518 6.90997 3.125 7.03125V20.3125C3.125 20.7269 3.28962 21.1243 3.58265 21.4174C3.87567 21.7104 4.2731 21.875 4.6875 21.875H20.3125C20.7269 21.875 21.1243 21.7104 21.4174 21.4174C21.7104 21.1243 21.875 20.7269 21.875 20.3125V7.03125C21.8748 6.90997 21.8468 6.79035 21.793 6.68164ZM16.1777 13.834C16.1052 13.9066 16.019 13.9642 15.9242 14.0036C15.8293 14.0429 15.7277 14.0631 15.625 14.0631C15.5223 14.0631 15.4207 14.0429 15.3258 14.0036C15.231 13.9642 15.1448 13.9066 15.0723 13.834L13.2812 12.042V17.9688C13.2812 18.176 13.1989 18.3747 13.0524 18.5212C12.9059 18.6677 12.7072 18.75 12.5 18.75C12.2928 18.75 12.0941 18.6677 11.9476 18.5212C11.8011 18.3747 11.7188 18.176 11.7188 17.9688V12.042L9.92773 13.834C9.85515 13.9066 9.76898 13.9641 9.67414 14.0034C9.5793 14.0427 9.47765 14.0629 9.375 14.0629C9.27235 14.0629 9.1707 14.0427 9.07586 14.0034C8.98102 13.9641 8.89485 13.9066 8.82227 13.834C8.74968 13.7614 8.6921 13.6752 8.65282 13.5804C8.61353 13.4855 8.59332 13.3839 8.59332 13.2812C8.59332 13.1786 8.61353 13.077 8.65282 12.9821C8.6921 12.8873 8.74968 12.8011 8.82227 12.7285L11.9473 9.60352C12.0198 9.53088 12.106 9.47325 12.2008 9.43394C12.2957 9.39462 12.3973 9.37439 12.5 9.37439C12.6027 9.37439 12.7043 9.39462 12.7992 9.43394C12.894 9.47325 12.9802 9.53088 13.0527 9.60352L16.1777 12.7285C16.2504 12.8011 16.308 12.8872 16.3473 12.9821C16.3866 13.0769 16.4069 13.1786 16.4069 13.2812C16.4069 13.3839 16.3866 13.4856 16.3473 13.5804C16.308 13.6753 16.2504 13.7614 16.1777 13.834ZM5.16992 6.25L5.95117 4.6875H19.0488L19.8301 6.25H5.16992Z" fill="#0D6EED"/>
</svg>
