<svg width="25" height="25" viewBox="0 0 25 25" fill="none" xmlns="http://www.w3.org/2000/svg">
<path d="M21.793 6.68164L20.2305 3.55664C20.1655 3.42684 20.0657 3.31771 19.9422 3.24147C19.8187 3.16523 19.6764 3.1249 19.5312 3.125H5.46875C5.32361 3.1249 5.18131 3.16523 5.05781 3.24147C4.9343 3.31771 4.83448 3.42684 4.76953 3.55664L3.20703 6.68164C3.15325 6.79035 3.12518 6.90997 3.125 7.03125V20.3125C3.125 20.7269 3.28962 21.1243 3.58265 21.4174C3.87567 21.7104 4.2731 21.875 4.6875 21.875H20.3125C20.7269 21.875 21.1243 21.7104 21.4174 21.4174C21.7104 21.1243 21.875 20.7269 21.875 20.3125V7.03125C21.8748 6.90997 21.8468 6.79035 21.793 6.68164ZM16.1777 15.3965L13.0527 18.5215C12.9802 18.5941 12.894 18.6517 12.7992 18.6911C12.7043 18.7304 12.6027 18.7506 12.5 18.7506C12.3973 18.7506 12.2957 18.7304 12.2008 18.6911C12.106 18.6517 12.0198 18.5941 11.9473 18.5215L8.82227 15.3965C8.67567 15.2499 8.59332 15.0511 8.59332 14.8438C8.59332 14.6364 8.67567 14.4376 8.82227 14.291C8.96886 14.1444 9.16768 14.0621 9.375 14.0621C9.58232 14.0621 9.78114 14.1444 9.92773 14.291L11.7188 16.083V10.1562C11.7188 9.94905 11.8011 9.75034 11.9476 9.60382C12.0941 9.45731 12.2928 9.375 12.5 9.375C12.7072 9.375 12.9059 9.45731 13.0524 9.60382C13.1989 9.75034 13.2812 9.94905 13.2812 10.1562V16.083L15.0723 14.291C15.2189 14.1444 15.4177 14.0621 15.625 14.0621C15.8323 14.0621 16.0311 14.1444 16.1777 14.291C16.3243 14.4376 16.4067 14.6364 16.4067 14.8438C16.4067 15.0511 16.3243 15.2499 16.1777 15.3965ZM5.16992 6.25L5.95117 4.6875H19.0488L19.8301 6.25H5.16992Z" fill="#05D5C3"/>
</svg>
