<svg width="62" height="62" viewBox="0 0 62 62" fill="none" xmlns="http://www.w3.org/2000/svg">
<circle cx="31" cy="31" r="31" fill="#DC3545" fill-opacity="0.25"/>
<path d="M24.0015 32.6783V43.8883C24.0015 44.5518 23.7379 45.1881 23.2688 45.6573C22.7996 46.1264 22.1633 46.39 21.4998 46.39H18.5232C17.8597 46.39 17.2234 46.1264 16.7542 45.6573C16.2851 45.1881 16.0215 44.5518 16.0215 43.8883V32.6783C16.0215 32.0134 16.2845 31.3754 16.7532 30.9038C17.2219 30.4321 17.8582 30.165 18.5232 30.1608H21.4998C22.1648 30.165 22.801 30.4321 23.2697 30.9038C23.7384 31.3754 24.0015 32.0134 24.0015 32.6783ZM34.9898 25.4108V43.9358C34.9856 44.6008 34.7186 45.237 34.2469 45.7058C33.7752 46.1745 33.1373 46.4375 32.4723 46.4375H29.5115C28.8465 46.4375 28.2086 46.1745 27.7369 45.7058C27.2652 45.237 26.9982 44.6008 26.994 43.9358V25.4108C26.994 24.7432 27.2592 24.1028 27.7313 23.6307C28.2035 23.1586 28.8438 22.8933 29.5115 22.8933H32.4723C33.14 22.8933 33.7803 23.1586 34.2525 23.6307C34.7246 24.1028 34.9898 24.7432 34.9898 25.4108ZM45.9782 18.08V43.9358C45.974 44.6008 45.7069 45.237 45.2352 45.7058C44.7636 46.1745 44.1256 46.4375 43.4607 46.4375H40.4998C39.8349 46.4375 39.1969 46.1745 38.7253 45.7058C38.2536 45.237 37.9865 44.6008 37.9823 43.9358V18.08C37.9823 17.4123 38.2476 16.772 38.7197 16.2999C39.1918 15.8277 39.8321 15.5625 40.4998 15.5625H43.4607C44.1283 15.5625 44.7687 15.8277 45.2408 16.2999C45.7129 16.772 45.9782 17.4123 45.9782 18.08Z" fill="#DC3545"/>
</svg>
