<svg width="133" height="97" viewBox="0 0 133 97" fill="none" xmlns="http://www.w3.org/2000/svg">
<path d="M72.4584 24.6666C72.4584 30.9876 69.9474 37.0497 65.4777 41.5194C61.0081 45.989 54.946 48.5 48.625 48.5C42.304 48.5 36.2419 45.989 31.7723 41.5194C27.3027 37.0497 24.7917 30.9876 24.7917 24.6666C24.7917 18.3457 27.3027 12.2836 31.7723 7.81393C36.2419 3.34432 42.304 0.833313 48.625 0.833313C54.946 0.833313 61.0081 3.34432 65.4777 7.81393C69.9474 12.2836 72.4584 18.3457 72.4584 24.6666ZM96.2917 84.25V96.1666H0.958374V84.25C0.958374 71.0821 22.2892 60.4166 48.625 60.4166C74.9609 60.4166 96.2917 71.0821 96.2917 84.25ZM117.146 63.3958V72.3333H108.208V63.3958H117.146ZM105.229 33.6041H96.2917V30.625C96.2917 25.8842 98.175 21.3377 101.527 17.9854C104.879 14.6332 109.426 12.75 114.167 12.75C118.907 12.75 123.454 14.6332 126.806 17.9854C130.158 21.3377 132.042 25.8842 132.042 30.625C132.042 36.4046 129.063 41.8266 124.355 44.9846L122.568 46.1166C119.172 48.5 117.146 52.1346 117.146 56.2458V57.4375H108.208V56.2458C108.208 49.1554 111.783 42.5416 117.682 38.6687L119.41 37.5366C121.734 35.9875 123.104 33.4254 123.104 30.625C123.104 28.2546 122.163 25.9813 120.486 24.3052C118.81 22.6291 116.537 21.6875 114.167 21.6875C111.796 21.6875 109.523 22.6291 107.847 24.3052C106.171 25.9813 105.229 28.2546 105.229 30.625V33.6041Z" fill="#878787"/>
</svg>
