<svg width="62" height="62" viewBox="0 0 62 62" fill="none" xmlns="http://www.w3.org/2000/svg">
<circle cx="31" cy="31" r="31" fill="#FE996B" fill-opacity="0.25"/>
<path d="M37.7961 18.5182C36.4789 18.0115 35.0207 18.0115 33.7035 18.5182L27.1276 21.0471C26.5898 21.2537 26.1272 21.6185 25.8009 22.0934C25.4746 22.5683 25.2999 23.1309 25.2998 23.7071V25.7971C26.544 25.6401 27.8077 25.7935 28.9782 26.2436L35.5522 28.7744C36.4487 29.1185 37.2199 29.7264 37.764 30.5177C38.308 31.3091 38.5995 32.2467 38.5998 33.2071V42.2891C38.5999 42.6707 38.5539 43.0509 38.463 43.4215L44.3739 41.1491C44.9117 40.9424 45.3743 40.5776 45.7006 40.1027C46.0269 39.6278 46.2016 39.0652 46.2017 38.4891V23.7071C46.2016 23.1309 46.0269 22.5683 45.7006 22.0934C45.3743 21.6185 44.9117 21.2537 44.3739 21.0471L37.7961 18.5182ZM41.3453 22.6108C41.4618 22.566 41.586 22.5446 41.7108 22.5478C41.8356 22.551 41.9585 22.5788 42.0726 22.6295C42.1867 22.6802 42.2896 22.7529 42.3756 22.8434C42.4616 22.9339 42.5289 23.0405 42.5737 23.157C42.6184 23.2735 42.6398 23.3977 42.6366 23.5225C42.6334 23.6473 42.6057 23.7703 42.5549 23.8843C42.5042 23.9984 42.4315 24.1013 42.341 24.1873C42.2505 24.2733 42.1439 24.3406 42.0274 24.3854L36.772 26.4051C36.1134 26.6584 35.3843 26.6584 34.7257 26.4051L29.4703 24.3854C29.235 24.2947 29.0453 24.1142 28.9431 23.8836C28.8408 23.6531 28.8343 23.3914 28.925 23.1561C29.0157 22.9207 29.1962 22.7311 29.4267 22.6288C29.6573 22.5265 29.919 22.5201 30.1543 22.6108L35.4078 24.6324C35.6279 24.7173 35.8717 24.7173 36.0918 24.6324L41.3453 22.6108ZM24.2035 28.0182C25.5207 27.5115 26.9789 27.5115 28.2961 28.0182L34.872 30.5471C35.974 30.9708 36.6979 32.0291 36.6979 33.2071V42.2891C36.698 42.865 36.5235 43.4275 36.1976 43.9023C35.8717 44.3772 35.4095 44.7421 34.872 44.9491L28.2961 47.478C26.9789 47.9846 25.5207 47.9846 24.2035 47.478L17.6276 44.951C17.0898 44.7443 16.6272 44.3795 16.3009 43.9046C15.9746 43.4298 15.7999 42.8671 15.7998 42.291V33.209C15.7999 32.6328 15.9746 32.0702 16.3009 31.5953C16.6272 31.1204 17.0898 30.7556 17.6276 30.549L24.2035 28.0182ZM33.0727 33.5567C32.9822 33.3216 32.8021 33.1322 32.5719 33.0299C32.3417 32.9277 32.0804 32.921 31.8453 33.0114L26.2498 35.1641L20.6524 33.0114C20.5353 32.9629 20.4096 32.9383 20.2829 32.9392C20.1561 32.94 20.0308 32.9662 19.9143 33.0162C19.7978 33.0662 19.6925 33.139 19.6046 33.2304C19.5167 33.3217 19.448 33.4297 19.4025 33.548C19.3569 33.6663 19.3356 33.7925 19.3396 33.9192C19.3436 34.0459 19.3729 34.1705 19.4258 34.2857C19.4788 34.4009 19.5542 34.5043 19.6477 34.5899C19.7412 34.6755 19.8509 34.7415 19.9703 34.7841L25.2998 36.8342V41.5652C25.2998 41.8171 25.3999 42.0588 25.5781 42.2369C25.7562 42.4151 25.9978 42.5152 26.2498 42.5152C26.5018 42.5152 26.7434 42.4151 26.9216 42.2369C27.0997 42.0588 27.1998 41.8171 27.1998 41.5652V36.8342L32.5274 34.7841C32.7624 34.6935 32.9519 34.5134 33.0541 34.2832C33.1564 34.0531 33.1631 33.7917 33.0727 33.5567Z" fill="#FE996B"/>
</svg>
