<svg width="20" height="20" viewBox="0 0 20 20" fill="none" xmlns="http://www.w3.org/2000/svg">
<path d="M10.841 13.1L10 11L9.159 13.1L7 13.292L8.64 14.781L8.146 17L10 15.821L11.854 17L11.36 14.781L13 13.292L10.841 13.1ZM4 0H16V2H4V0ZM2 4H18V6H2V4Z" fill="black"/>
<path d="M18 10V18H2V10H18ZM18 8H2C1.46957 8 0.960859 8.21071 0.585786 8.58579C0.210714 8.96086 0 9.46957 0 10V18C0 18.5304 0.210714 19.0391 0.585786 19.4142C0.960859 19.7893 1.46957 20 2 20H18C18.5304 20 19.0391 19.7893 19.4142 19.4142C19.7893 19.0391 20 18.5304 20 18V10C20 9.46957 19.7893 8.96086 19.4142 8.58579C19.0391 8.21071 18.5304 8 18 8Z" fill="black"/>
</svg>
