<svg width="100" height="80" viewBox="0 0 100 80" fill="none" xmlns="http://www.w3.org/2000/svg">
<path d="M49.9922 0.503906C50.9154 0.503906 51.8298 0.685433 52.6826 1.03906V1.04004L95.1982 18.7432C97.7951 19.8382 99.5 22.3759 99.5 25.2031V78.75C99.5 79.1614 99.1614 79.5 98.75 79.5H86.25C85.8386 79.5 85.5 79.1614 85.5 78.75V40C85.5 36.9658 82.9868 34.5 79.9062 34.5H20.0938C17.0132 34.5 14.5 36.9658 14.5 40V78.75C14.5 79.1614 14.1614 79.5 13.75 79.5H1.25C0.838642 79.5 0.5 79.1614 0.5 78.75V25.2031C0.500004 22.3759 2.2049 19.8382 4.80176 18.7432L47.3018 1.04004L47.3008 1.03906C48.1538 0.685207 49.0687 0.503907 49.9922 0.503906ZM21.2656 70.5H78.75C79.1614 70.5 79.5 70.8386 79.5 71.25V78.75C79.5 79.1614 79.1614 79.5 78.75 79.5H21.25C20.839 79.5 20.5005 79.1619 20.5 78.751L20.5156 71.251V71.25C20.5156 70.8386 20.8543 70.5 21.2656 70.5ZM21.3125 55.5H78.75C79.1614 55.5 79.5 55.8386 79.5 56.25V63.75C79.5 64.1614 79.1614 64.5 78.75 64.5H21.2969C20.8858 64.5 20.5474 64.1619 20.5469 63.751L20.5625 56.251V56.25C20.5625 55.8386 20.9011 55.5 21.3125 55.5ZM21.3438 40.5H78.75C79.1614 40.5 79.5 40.8386 79.5 41.25V48.75C79.5 49.1614 79.1614 49.5 78.75 49.5H21.3281C20.9171 49.5 20.5787 49.1619 20.5781 48.751L20.5938 41.251V41.25C20.5938 40.8386 20.9324 40.5 21.3438 40.5Z" fill="#878787" stroke="#878787"/>
</svg>
