<svg width="18" height="18" viewBox="0 0 18 18" fill="none" xmlns="http://www.w3.org/2000/svg">
<path d="M13.0538 13.8262C11.8124 14.3437 10.7155 14.625 9.28115 14.625C7.71289 14.625 6.7499 14.3437 5.22946 13.5787L3.77483 14.837C2.99071 15.5182 3.43677 16.875 4.44646 16.875H13.5505C14.5608 16.875 15.0125 15.5182 14.2221 14.837L13.0538 13.8262Z" fill="#D3D3D3"/>
<path d="M9.28125 15.1875C12.5432 15.1875 15.1875 12.5432 15.1875 9.28125C15.1875 6.01931 12.5432 3.375 9.28125 3.375C6.01931 3.375 3.375 6.01931 3.375 9.28125C3.375 12.5432 6.01931 15.1875 9.28125 15.1875Z" fill="#F8312F"/>
<path d="M9.28125 13.5C10.4001 13.5 11.4732 13.0555 12.2644 12.2644C13.0555 11.4732 13.5 10.4001 13.5 9.28125C13.5 8.16237 13.0555 7.08931 12.2644 6.29814C11.4732 5.50697 10.4001 5.0625 9.28125 5.0625C8.16237 5.0625 7.08931 5.50697 6.29814 6.29814C5.50697 7.08931 5.0625 8.16237 5.0625 9.28125C5.0625 10.4001 5.50697 11.4732 6.29814 12.2644C7.08931 13.0555 8.16237 13.5 9.28125 13.5Z" fill="white"/>
<path d="M2.40347 5.19073C1.99003 3.90599 2.4254 2.44405 3.54703 1.65036C4.66865 0.856673 6.12778 0.987735 7.10203 1.87311C7.4069 2.15267 7.37428 2.66061 7.0424 2.89517L3.32934 5.51642C2.99184 5.75042 2.53397 5.59067 2.40347 5.19073ZM16.1588 5.19073C16.5723 3.90599 16.1369 2.44405 15.0153 1.65036C13.8937 0.856673 12.4345 0.987735 11.4603 1.87311C11.1554 2.15267 11.188 2.66061 11.5199 2.89517L15.233 5.51642C15.5705 5.75042 16.0283 5.59067 16.1588 5.19073Z" fill="#F9C23C"/>
<path d="M8.5321 9.25029C8.57309 9.18882 8.62579 9.13603 8.68718 9.09494C8.74858 9.05384 8.81747 9.02524 8.88992 9.01077C8.96236 8.9963 9.03696 8.99625 9.10943 9.01061C9.1819 9.02497 9.25083 9.05347 9.31228 9.09448L10.9998 10.2195C11.1239 10.3023 11.2101 10.431 11.2393 10.5773C11.2685 10.7236 11.2384 10.8755 11.1556 10.9997C11.0728 11.1238 10.9441 11.2099 10.7978 11.2392C10.6515 11.2684 10.4995 11.2383 10.3754 11.1555L8.68791 10.0305C8.62644 9.98949 8.57365 9.93679 8.53256 9.87539C8.49146 9.814 8.46286 9.74511 8.44839 9.67266C8.43392 9.60021 8.43387 9.52562 8.44823 9.45315C8.46259 9.38068 8.49109 9.31174 8.5321 9.25029Z" fill="#F8312F"/>
<path d="M9 6.1875C9.14918 6.1875 9.29226 6.24676 9.39775 6.35225C9.50324 6.45774 9.5625 6.60082 9.5625 6.75V9.5625C9.5625 9.71168 9.50324 9.85476 9.39775 9.96025C9.29226 10.0657 9.14918 10.125 9 10.125C8.85082 10.125 8.70774 10.0657 8.60225 9.96025C8.49676 9.85476 8.4375 9.71168 8.4375 9.5625V6.75C8.4375 6.60082 8.49676 6.45774 8.60225 6.35225C8.70774 6.24676 8.85082 6.1875 9 6.1875Z" fill="#212121"/>
</svg>
