<svg width="24" height="24" viewBox="0 0 24 24" fill="none" xmlns="http://www.w3.org/2000/svg">
<path d="M4.58 8.60696L2 8.45396C3.849 3.70396 9.158 0.999958 14.333 2.34396C19.846 3.77696 23.121 9.26196 21.647 14.594C20.428 19.005 16.343 21.931 11.847 22" stroke="black" stroke-width="1.5" stroke-linecap="round" stroke-linejoin="round"/>
<path d="M12 22C6.5 22 2 17 2 11" stroke="black" stroke-width="1.5" stroke-linecap="round" stroke-linejoin="round" stroke-dasharray="0.5 3"/>
<path d="M13.604 9.72202C13.252 9.35202 12.391 8.48502 11.029 9.10202C9.66804 9.71702 9.45204 11.698 11.511 11.909C12.441 12.004 13.048 11.799 13.604 12.379C14.16 12.961 14.263 14.577 12.843 15.013C11.423 15.449 10.502 14.729 10.255 14.504M11.908 8.02002V8.81002M11.908 15.147V16.02" stroke="black" stroke-width="1.5" stroke-linecap="round" stroke-linejoin="round"/>
</svg>
