<svg width="34" height="34" viewBox="0 0 34 34" fill="none" xmlns="http://www.w3.org/2000/svg">
<path d="M12.3483 34L11.6716 28.56C11.3051 28.4183 10.9601 28.2483 10.6364 28.05C10.3128 27.8517 9.99532 27.6392 9.68408 27.4125L4.65174 29.5375L0 21.4625L4.35572 18.1475C4.32753 17.9492 4.31343 17.7582 4.31343 17.5746V16.4271C4.31343 16.2424 4.32753 16.0508 4.35572 15.8525L0 12.5375L4.65174 4.4625L9.68408 6.5875C9.9942 6.36083 10.3184 6.14833 10.6567 5.95C10.995 5.75167 11.3333 5.58167 11.6716 5.44L12.3483 0H21.6517L22.3284 5.44C22.6949 5.58167 23.0405 5.75167 23.3653 5.95C23.6901 6.14833 24.0069 6.36083 24.3159 6.5875L29.3483 4.4625L34 12.5375L29.6443 15.8525C29.6725 16.0508 29.6866 16.2424 29.6866 16.4271V17.5729C29.6866 17.7576 29.6584 17.9492 29.602 18.1475L33.9577 21.4625L29.306 29.5375L24.3159 27.4125C24.0058 27.6392 23.6816 27.8517 23.3433 28.05C23.005 28.2483 22.6667 28.4183 22.3284 28.56L21.6517 34H12.3483ZM17.0846 22.95C18.7197 22.95 20.1153 22.3692 21.2711 21.2075C22.427 20.0458 23.005 18.6433 23.005 17C23.005 15.3567 22.427 13.9542 21.2711 12.7925C20.1153 11.6308 18.7197 11.05 17.0846 11.05C15.4212 11.05 14.0184 11.6308 12.876 12.7925C11.7337 13.9542 11.1631 15.3567 11.1642 17C11.1653 18.6433 11.7365 20.0458 12.8777 21.2075C14.0189 22.3692 15.4212 22.95 17.0846 22.95Z" fill="black"/>
</svg>
