<svg width="24" height="24" viewBox="0 0 24 24" fill="none" xmlns="http://www.w3.org/2000/svg">
<path d="M11.2403 10.7933C13.6188 10.7933 15.5469 8.86516 15.5469 6.48666C15.5469 4.10815 13.6188 2.17999 11.2403 2.17999C8.86175 2.17999 6.93359 4.10815 6.93359 6.48666C6.93359 8.86516 8.86175 10.7933 11.2403 10.7933Z" fill="black"/>
<path d="M14 18.6667H18.6667V19.6H14V18.6667Z" fill="black"/>
<path d="M10.0001 20V22C10.0001 22.1768 10.0703 22.3464 10.1954 22.4714C10.3204 22.5964 10.49 22.6666 10.6668 22.6666H22.0001C22.1769 22.6666 22.3465 22.5964 22.4715 22.4714C22.5965 22.3464 22.6668 22.1768 22.6668 22V15.3333C22.6668 15.1565 22.5965 14.9869 22.4715 14.8619C22.3465 14.7369 22.1769 14.6666 22.0001 14.6666H17.3334V13.6866C17.3334 13.5098 17.2632 13.3403 17.1382 13.2152C17.0131 13.0902 16.8436 13.02 16.6668 13.02C16.49 13.02 16.3204 13.0902 16.1954 13.2152C16.0703 13.3403 16.0001 13.5098 16.0001 13.6866V14.6666H14.6668V12.28C13.5339 12.0946 12.388 12.001 11.2401 12C8.70864 11.9892 6.20553 12.5331 3.90677 13.5933C3.52843 13.7719 3.20924 14.0552 2.98709 14.4097C2.76493 14.7642 2.64914 15.175 2.65344 15.5933V20H10.0001ZM21.3334 21.3333H11.3334V16H16.0001V16.28C16.0001 16.4568 16.0703 16.6264 16.1954 16.7514C16.3204 16.8764 16.49 16.9466 16.6668 16.9466C16.8436 16.9466 17.0131 16.8764 17.1382 16.7514C17.2632 16.6264 17.3334 16.4568 17.3334 16.28V16H21.3334V21.3333Z" fill="black"/>
</svg>
