<svg width="62" height="62" viewBox="0 0 62 62" fill="none" xmlns="http://www.w3.org/2000/svg">
<circle cx="31" cy="31" r="31" fill="#0D6EED" fill-opacity="0.25"/>
<path d="M45.1253 24.1561L42.7503 19.4061C42.6516 19.2088 42.4999 19.0429 42.3121 18.927C42.1244 18.8111 41.9081 18.7498 41.6875 18.75H20.3125C20.0919 18.7498 19.8756 18.8111 19.6879 18.927C19.5001 19.0429 19.3484 19.2088 19.2497 19.4061L16.8747 24.1561C16.7929 24.3213 16.7503 24.5031 16.75 24.6875V44.875C16.75 45.5049 17.0002 46.109 17.4456 46.5544C17.891 46.9998 18.4951 47.25 19.125 47.25H42.875C43.5049 47.25 44.109 46.9998 44.5544 46.5544C44.9998 46.109 45.25 45.5049 45.25 44.875V24.6875C45.2497 24.5031 45.2071 24.3213 45.1253 24.1561ZM36.5902 35.0277C36.4799 35.1381 36.3489 35.2257 36.2047 35.2854C36.0606 35.3452 35.9061 35.3759 35.75 35.3759C35.5939 35.3759 35.4394 35.3452 35.2953 35.2854C35.1511 35.2257 35.0201 35.1381 34.9098 35.0277L32.1875 32.3038V41.3125C32.1875 41.6274 32.0624 41.9295 31.8397 42.1522C31.617 42.3749 31.3149 42.5 31 42.5C30.6851 42.5 30.383 42.3749 30.1603 42.1522C29.9376 41.9295 29.8125 41.6274 29.8125 41.3125V32.3038L27.0902 35.0277C26.9798 35.138 26.8488 35.2255 26.7047 35.2852C26.5605 35.3449 26.406 35.3757 26.25 35.3757C26.094 35.3757 25.9395 35.3449 25.7953 35.2852C25.6512 35.2255 25.5202 35.138 25.4098 35.0277C25.2995 34.9173 25.212 34.7863 25.1523 34.6422C25.0926 34.498 25.0618 34.3435 25.0618 34.1875C25.0618 34.0315 25.0926 33.877 25.1523 33.7328C25.212 33.5887 25.2995 33.4577 25.4098 33.3473L30.1598 28.5973C30.2701 28.4869 30.4011 28.3993 30.5453 28.3396C30.6894 28.2798 30.8439 28.2491 31 28.2491C31.1561 28.2491 31.3106 28.2798 31.4547 28.3396C31.5989 28.3993 31.7299 28.4869 31.8402 28.5973L36.5902 33.3473C36.7006 33.4576 36.7882 33.5886 36.8479 33.7328C36.9077 33.8769 36.9384 34.0314 36.9384 34.1875C36.9384 34.3436 36.9077 34.4981 36.8479 34.6422C36.7882 34.7864 36.7006 34.9174 36.5902 35.0277ZM19.8583 23.5L21.0458 21.125H40.9542L42.1417 23.5H19.8583Z" fill="#0D6EED"/>
</svg>
