<svg width="24" height="24" viewBox="0 0 24 24" fill="none" xmlns="http://www.w3.org/2000/svg">
<path d="M10.4404 2.976C11.4418 2.57538 12.559 2.57538 13.5604 2.976L20.4688 5.7408C21.1528 6.0132 21.6004 6.6756 21.6004 7.4112V12.3072C20.4188 11.3306 18.9333 10.7975 17.4004 10.8C16.5013 10.7986 15.6115 10.9815 14.7859 11.3376C13.9603 11.6936 13.2165 12.2152 12.6004 12.87V10.59L17.644 8.3472C17.716 8.31521 17.781 8.26935 17.8353 8.21223C17.8896 8.15512 17.9321 8.08787 17.9604 8.01432C17.9887 7.94078 18.0023 7.86238 18.0003 7.78361C17.9983 7.70483 17.9808 7.62722 17.9488 7.5552C17.9168 7.48318 17.8709 7.41817 17.8138 7.36388C17.7567 7.30958 17.6895 7.26707 17.6159 7.23877C17.5424 7.21047 17.464 7.19693 17.3852 7.19892C17.3064 7.20092 17.2288 7.21841 17.1568 7.2504L12.0004 9.5424L6.84399 7.2504C6.69855 7.18579 6.53339 7.18161 6.38486 7.23877C6.23634 7.29593 6.1166 7.40975 6.05199 7.5552C5.98738 7.70064 5.9832 7.8658 6.04036 8.01432C6.09752 8.16285 6.21135 8.28259 6.35679 8.3472L11.4004 10.5888V14.6472C11.0046 15.5109 10.7999 16.4499 10.8004 17.4C10.8004 18.8676 11.2804 20.2248 12.0916 21.3204C11.5266 21.3325 10.965 21.2305 10.4404 21.0204L3.53199 18.258C3.1979 18.1244 2.91152 17.8937 2.70982 17.5958C2.50811 17.2978 2.40033 16.9462 2.40039 16.5864V7.4112C2.40057 7.05159 2.50846 6.70027 2.71015 6.40255C2.91184 6.10482 3.19809 5.87433 3.53199 5.7408L10.4404 2.976ZM12.0004 17.4C12.0004 18.8322 12.5693 20.2057 13.582 21.2184C14.5947 22.2311 15.9682 22.8 17.4004 22.8C18.8326 22.8 20.2061 22.2311 21.2188 21.2184C22.2315 20.2057 22.8004 18.8322 22.8004 17.4C22.8004 15.9678 22.2315 14.5943 21.2188 13.5816C20.2061 12.5689 18.8326 12 17.4004 12C15.9682 12 14.5947 12.5689 13.582 13.5816C12.5693 14.5943 12.0004 15.9678 12.0004 17.4ZM19.8004 13.8C19.9595 13.8 20.1121 13.8632 20.2247 13.9757C20.3372 14.0883 20.4004 14.2409 20.4004 14.4V16.2C20.4004 16.3591 20.3372 16.5117 20.2247 16.6243C20.1121 16.7368 19.9595 16.8 19.8004 16.8H18.0004C17.8413 16.8 17.6886 16.7368 17.5761 16.6243C17.4636 16.5117 17.4004 16.3591 17.4004 16.2C17.4004 16.0409 17.4636 15.8883 17.5761 15.7757C17.6886 15.6632 17.8413 15.6 18.0004 15.6H18.562C18.2496 15.427 17.9025 15.326 17.546 15.3042C17.1896 15.2824 16.8328 15.3404 16.5016 15.474C16.2028 15.5947 15.9315 15.7742 15.7036 16.002C15.6482 16.0593 15.582 16.105 15.5088 16.1365C15.4356 16.1679 15.3569 16.1845 15.2772 16.1851C15.1976 16.1858 15.1186 16.1707 15.0448 16.1405C14.9711 16.1103 14.9041 16.0658 14.8478 16.0094C14.7914 15.9531 14.7469 15.8861 14.7167 15.8124C14.6865 15.7386 14.6713 15.6596 14.672 15.58C14.6727 15.5003 14.6893 15.4216 14.7207 15.3484C14.7522 15.2752 14.7979 15.2089 14.8552 15.1536C15.4156 14.5935 16.1452 14.2339 16.9309 14.1306C17.7165 14.0273 18.5142 14.1861 19.2004 14.5824V14.4C19.2004 14.2409 19.2636 14.0883 19.3761 13.9757C19.4886 13.8632 19.6413 13.8 19.8004 13.8ZM18.7492 20.4372C18.2421 20.6422 17.695 20.7289 17.1494 20.6909C16.6038 20.6528 16.0741 20.491 15.6004 20.2176V20.4C15.6004 20.5591 15.5372 20.7117 15.4247 20.8243C15.3121 20.9368 15.1595 21 15.0004 21C14.8413 21 14.6886 20.9368 14.5761 20.8243C14.4636 20.7117 14.4004 20.5591 14.4004 20.4V18.6C14.4004 18.4409 14.4636 18.2883 14.5761 18.1757C14.6886 18.0632 14.8413 18 15.0004 18H16.8004C16.9595 18 17.1121 18.0632 17.2247 18.1757C17.3372 18.2883 17.4004 18.4409 17.4004 18.6C17.4004 18.7591 17.3372 18.9117 17.2247 19.0243C17.1121 19.1368 16.9595 19.2 16.8004 19.2H16.2388C16.2988 19.232 16.3608 19.2628 16.4248 19.2924C16.8681 19.4896 17.3608 19.5478 17.8379 19.4594C18.315 19.3709 18.7541 19.1399 19.0972 18.7968C19.2104 18.6875 19.3619 18.627 19.5192 18.6284C19.6765 18.6298 19.827 18.6929 19.9383 18.8041C20.0495 18.9154 20.1126 19.0658 20.114 19.2232C20.1154 19.3805 20.0549 19.532 19.9456 19.6452C19.604 19.9868 19.1971 20.2561 18.7492 20.4372Z" fill="black"/>
</svg>
