<svg width="62" height="62" viewBox="0 0 62 62" fill="none" xmlns="http://www.w3.org/2000/svg">
<circle cx="31" cy="31" r="31" fill="#05D5C3" fill-opacity="0.25"/>
<path d="M45.1253 24.1561L42.7503 19.4061C42.6516 19.2088 42.4999 19.0429 42.3121 18.927C42.1244 18.8111 41.9081 18.7498 41.6875 18.75H20.3125C20.0919 18.7498 19.8756 18.8111 19.6879 18.927C19.5001 19.0429 19.3484 19.2088 19.2497 19.4061L16.8747 24.1561C16.7929 24.3213 16.7503 24.5031 16.75 24.6875V44.875C16.75 45.5049 17.0002 46.109 17.4456 46.5544C17.891 46.9998 18.4951 47.25 19.125 47.25H42.875C43.5049 47.25 44.109 46.9998 44.5544 46.5544C44.9998 46.109 45.25 45.5049 45.25 44.875V24.6875C45.2497 24.5031 45.2071 24.3213 45.1253 24.1561ZM36.5902 37.4027L31.8402 42.1527C31.7299 42.2631 31.5989 42.3507 31.4547 42.4104C31.3106 42.4702 31.1561 42.5009 31 42.5009C30.8439 42.5009 30.6894 42.4702 30.5453 42.4104C30.4011 42.3507 30.2701 42.2631 30.1598 42.1527L25.4098 37.4027C25.187 37.1798 25.0618 36.8776 25.0618 36.5625C25.0618 36.2474 25.187 35.9452 25.4098 35.7223C25.6327 35.4995 25.9349 35.3743 26.25 35.3743C26.5651 35.3743 26.8673 35.4995 27.0902 35.7223L29.8125 38.4462V29.4375C29.8125 29.1226 29.9376 28.8205 30.1603 28.5978C30.383 28.3751 30.6851 28.25 31 28.25C31.3149 28.25 31.617 28.3751 31.8397 28.5978C32.0624 28.8205 32.1875 29.1226 32.1875 29.4375V38.4462L34.9098 35.7223C35.1327 35.4995 35.4349 35.3743 35.75 35.3743C36.0651 35.3743 36.3673 35.4995 36.5902 35.7223C36.813 35.9452 36.9382 36.2474 36.9382 36.5625C36.9382 36.8776 36.813 37.1798 36.5902 37.4027ZM19.8583 23.5L21.0458 21.125H40.9542L42.1417 23.5H19.8583Z" fill="#05D5C3"/>
</svg>
