<svg width="84" height="74" viewBox="0 0 84 74" fill="none" xmlns="http://www.w3.org/2000/svg">
<path d="M0 20.2624V69.3512C0 71.9226 2.08542 74 4.66667 74C7.24792 74 9.33333 71.9226 9.33333 69.3512V34.4849C9.33333 31.9135 11.4187 29.8361 14 29.8361H70C72.5812 29.8361 74.6667 31.9135 74.6667 34.4849V69.3512C74.6667 71.9226 76.7521 74 79.3333 74C81.9146 74 84 71.9226 84 69.3512V20.2624C84 16.2673 81.4333 12.708 77.6125 11.4441L44.2167 0.359558C42.7729 -0.119853 41.2271 -0.119853 39.7833 0.359558L6.3875 11.4441C2.56667 12.708 0 16.2673 0 20.2624ZM67.6667 36.8093H16.3333V46.107H67.6667V36.8093ZM16.3333 60.0535H67.6667V50.7558H16.3333V60.0535ZM67.6667 64.7023H16.3333V74H67.6667V64.7023Z" fill="#878787"/>
</svg>
